<?xml version="1.0" encoding="utf-8"?>
<!-- Generator: Adobe Illustrator 22.0.0, SVG Export Plug-In . SVG Version: 6.00 Build 0)  -->
<svg version="1.1" id="Layer_1" xmlns="http://www.w3.org/2000/svg" xmlns:xlink="http://www.w3.org/1999/xlink" x="0px" y="0px"
	 viewBox="0 0 400 400" style="enable-background:new 0 0 400 400;" xml:space="preserve">
<style type="text/css">
	.st0{fill:#3399FF;}
	.st1{fill:#0076BF;}
	.st2{fill:#FFFFFF;}
</style>
<title>Artboard 4</title>
<g>
	<path class="st0" d="M170.1,51.2l179.9,126c47.4,33.2,58.9,98.5,25.7,145.9l0,0c-33.2,47.4-98.5,58.9-145.9,25.7L50,222.8
		C2.6,189.6-8.9,124.3,24.2,76.9l0,0C57.4,29.6,122.7,18,170.1,51.2z"/>
	<path class="st1" d="M48.3,203.6L203.6,48.3c40.9-40.9,107.2-40.9,148.1,0l0,0c40.9,40.9,40.9,107.2,0,148.1L196.4,351.7
		c-40.9,40.9-107.2,40.9-148.1,0l0,0C7.4,310.8,7.4,244.5,48.3,203.6z"/>
	<polygon class="st2" points="249.6,193 180.6,232.9 180.6,153.2 	"/>
	<rect x="106.4" y="271" class="st2" width="8.2" height="27.7"/>
	<rect x="119.3" y="271" class="st2" width="8.2" height="27.7"/>
	<rect x="274.8" y="102.6" class="st2" width="23.3" height="23.3"/>
</g>
</svg>
