<svg xmlns="http://www.w3.org/2000/svg" viewBox="0 0 873 400"><title>Artboard 10</title><rect x="54.86" y="120.55" width="289.15" height="141.15" rx="70.57" ry="70.57" transform="translate(145.69 -79.83) rotate(35)" style="fill:#39f"/><rect x="54.86" y="120.55" width="289.15" height="141.15" rx="70.57" ry="70.57" transform="translate(-76.73 197.01) rotate(-45)" style="fill:#0076bf"/><polygon points="232.89 186.43 186.37 213.28 186.37 159.58 232.89 186.43" style="fill:#fff"/><rect x="136.34" y="238.93" width="5.52" height="18.65" style="fill:#fff"/><rect x="145.09" y="238.93" width="5.52" height="18.65" style="fill:#fff"/><rect x="249.87" y="125.48" width="15.68" height="15.68" style="fill:#fff"/><path d="M366.23,217.5h-9.45V152h7.67l21.62,31.82L407.7,152h7.48V217.5h-9.36V171.36L388.7,196.81h-5.34l-17.13-25.45Z"/><path d="M422.86,197.84V152.08h9.55v45.86c0,7.2,7.76,10.76,14.69,10.76s14.6-3.65,14.6-10.86V152.08h9.55v45.86c0,13.29-12.92,20.22-24.15,20.22C435.59,218.16,422.86,211.23,422.86,197.84Z"/><path d="M513.56,168.92c-1.31-5.89-7.68-8.42-13.39-8.33-4.4.1-9.26,1.59-11.89,5a8.64,8.64,0,0,0-1.59,6.09c.47,6.74,7.87,7.58,14.89,8.23,9,1.13,20.12,3.47,22.65,13.95a23.24,23.24,0,0,1,.46,4.31c0,12.63-12.54,19.93-24.33,19.93-10.11,0-22.37-6-23.59-17.69l-.09-1.78,9.54-.18.1,1.4v-.37c.65,6.08,8.05,9.26,14.13,9.26,7,0,14.7-3.93,14.7-10.67a10.93,10.93,0,0,0-.28-2.24c-1.13-5-7.87-5.81-14.42-6.46-10.2-1-22.18-3.28-23.21-16.94v.09A17.74,17.74,0,0,1,480.8,160c4.4-5.71,12.26-8.7,19.84-8.7,10.11,0,20.59,5.24,22.28,17.22Z"/><path d="M559.42,161.44H547.25v46.61h12.17v9.45H525.63v-9.45H537.8V161.44H525.63v-9.36h33.79Z"/><path d="M571.21,161.44a31.59,31.59,0,0,1,22.65-9.74c15,0,26.77,9.36,30.52,24.15H615c-3.47-9.83-11.52-14.79-21.16-14.79a22.28,22.28,0,0,0-16.1,7,24.22,24.22,0,0,0,0,33.51A22.56,22.56,0,0,0,615.58,193h9.26c-3.74,14.88-15.72,25-31,25a31.24,31.24,0,0,1-22.65-9.74,33.92,33.92,0,0,1,0-46.79Z"/><path d="M653.3,152c14.13,0,21.24,11,21.24,21.9s-7.11,21.81-21.24,21.81H638.88V217.5h-9.54V152Zm0,34.35c8,0,11.89-6.18,11.89-12.35s-3.94-12.45-11.89-12.45H638.88v24.8Z"/><path d="M707.68,161.44H695.51v46.61h12.17v9.45H673.89v-9.45h12.17V161.44H673.89v-9.36h33.79Z"/><path d="M721.53,208.05h30.8v9.45H712.08V152.08h9.45Z"/><path d="M765.52,208.05h30.8v9.45H756.07V152.08h9.45Z"/></svg>